<svg xmlns:xlink="http://www.w3.org/1999/xlink" xmlns="http://www.w3.org/2000/svg" width="928.847" height="196.854" viewBox="0 0 928.847 196.854">
  <defs>
    <clipPath id="clip-path">
      <rect id="Rectangle_27" data-name="Rectangle 27" width="928.375" height="68.314" fill="#e2f1f5"/>
    </clipPath>
  </defs>
  <g id="txt" transform="translate(-241.879 -197.653)">
    <g id="Group_147" data-name="Group 147" transform="translate(1170.726 265.302) rotate(172)">
      <g id="Group_74" data-name="Group 74" transform="translate(0 0)" clip-path="url(#clip-path)">
        <path id="Path_22270" data-name="Path 22270" d="M476.525,60.845c-.721-.394-3.116-.811-1.062-1.191a27.534,27.534,0,0,1,7.147.115,111.134,111.134,0,0,0,23.3.232,59.452,59.452,0,0,1,7.783-.067c9.04.287,18.043.237,27.195.049,10.5-.216,21.216.072,31.749-.224a49.543,49.543,0,0,0,7.948-.436,26.294,26.294,0,0,0-6.975-.566c-6.445.044-12.878.133-19.323.172-26.246.157-52.477-.267-78.212-.843-25.448-.568-51.332-.87-76.341-1.926-22.312-.942-45.044-1.619-67.1-2.724a74.1,74.1,0,0,0-8.77-.115c-1.644.448,3.117.717,1.039,1.164-9.215.028-17.324-.6-25.946-1.013-14.13-.679-25.625-2.321-41.094-2.536-7.46-.1-11.5-1.419-17.3-2.351,5.3-.352,7.675.368,11.071.44,3.554.076,7.957.754,10.457.137,2.979-.735-3.262-1.066-5.388-1.574-2.077-.5-5.824-.529-9.174-.63A90.944,90.944,0,0,1,232.5,45.483c-7.436-1.465-18.179-2.32-27.934-3.336-13.038-1.356-26-2.731-38.983-4.1-11.611-1.221-23.474-2.41-35.323-3.588C122.9,33.73,115.91,32.884,109.8,31.88c-.79-.13-2.167-.293-2.07-.416,1.149-1.463-6.141-1.658-11.875-2.182A46.145,46.145,0,0,1,87.5,27.837a45.7,45.7,0,0,0-7.636-1.543c-2.124-.27-3.8-.663-3.734-1.091.172-1.2-2.413-2.106-9.091-2.71-1.3-.117-1.746-.4-.849-.644a14.421,14.421,0,0,1,4.013-.087c4.783.3,8.53,1.017,15.683.987-2.148-.982-5.832-1.628-9.72-2.237-16.5-2.582-33.422-5.091-51.505-7.394-6.823-.869-13.433-1.782-20.039-2.693C2.414,10.12-.1,9.818,0,9.229a84.926,84.926,0,0,1,17.048,1.192c5.941.971,13.195,1.633,19.884,2.426a54.152,54.152,0,0,0,9.262.593,91.611,91.611,0,0,1,15.621.74c10.951,1.2,23.08,2.1,33.963,3.333,4.86.551,10.548.977,16.761,1.076,3.257.052,6.28.237,7.567.7,2.4.853,7.123.72,11.233.935,1.028-.6-1.446-.732-3.318-.877-4.586-.354-7.944-.936-11.331-1.507-3.249-.548-4.931-1.381-11.234-1.318-1.6.016-3.426-.343-2.909-.67.606-.382,2.949-.3,4.807-.274,2.647.043,5.274.12,7.923.158,3.552.051,8.2.743,9.83-.4a102.077,102.077,0,0,1,13.79.535c4.649.689,10.859.85,16.43,1.213a85.571,85.571,0,0,0,12.06-.106c-.171-.614-1.3-1.158-4.129-1.479-7.79-.883-12.653-2.27-21.013-3.045-2.038-.189-3.752-.442-4.13-.824-.224-.226-.266-.513.424-.693a14.793,14.793,0,0,1,4.864.019c11.9,1.449,26.579,2.065,39.067,3.335a109.826,109.826,0,0,0,14.195.567C193.965,13.362,183.15,13.334,179.7,12a69.6,69.6,0,0,1,16.314-.224,104.137,104.137,0,0,0,16.052.547,104.207,104.207,0,0,1,10.607.539c8.731.628,17.479,1.2,27.371,1.07a35.181,35.181,0,0,1,4.366.112c6.964,1.522,19.86,1.066,28.065,2.176,2.112.286,4.888.586,6.115-.31.57-.415,4.691-.061,7.083.069,19.452,1.054,39.605,1.693,59.56,2.409,25.085.9,50.527,1.563,75.938,2.2,8.521.215,17.426.018,26.141.069,14.438.084,28.9.149,43.284.351,10.342.146,20.374-.334,30.637-.2a37.126,37.126,0,0,0,7.251-.436c6.236-1.718,17.435-1.429,26.98-1.747,7.387-.246,14.646-.526,21.936-.831,13.275-.554,25.013-1.608,37.3-2.465,12.833-.894,24.794-2.1,37.344-3.107,9.844-.788,20-1.476,30.028-2.205.687-.05,1.466-.124,2.147-.112,13.943.257,25.689-.8,37.787-1.619,6.25-.424,12.249-.945,17.514-1.641,3.229-.427,7.414-.746,10.134-.225a22.558,22.558,0,0,0,8.314,0c4.393-.562,8.768-1.127,13.9-1.787-5.291-.352-9.377.562-14.187-.051a147.868,147.868,0,0,1,21.131-1.81c13.493-.309,26.366-.861,37.954-2.051,1.595-.163,3.509-.253,5-.435A23.7,23.7,0,0,1,840.3.475c4.873,1.171,11.4,1.256,18.977.718,3.105-.221,6.465-.355,9.757-.5a67.938,67.938,0,0,1,11.735.44c4.847.629,4.5,1.457-1.31,1.6-8.861.223-8.948,1.173-10.118,2.217-2.745,2.448,5.192,3.825,17.725,4.8.335.384-1.882.493-2.962.718-8.8,1.84-8.754,1.9-.066,3.827,6.2,1.377,11.228,2.867,16,4.38,1.253.4,1.307.8,1.337,1.234.114,1.628,3.236,2.357,13.489,2.564,6.184.125,6.914.66,6.6,1.325a12.883,12.883,0,0,1-3.013,3.405c-1.1.993-1.253,1.843,4.15,2.645,6.052.9,7.364,2.139,3.887,3.358-3.525,1.235-2.257,2.627-5.828,3.861-1.154.4-.565.994,1.985,1.353,5.664.8,2.066,1.355-1.645,1.946q-14.5,2.309-28.859,4.64a51.864,51.864,0,0,0-7.4,1.608c-4.138,1.374-11.753,2.194-19.171,3.043-3.78.433-7.587.444-9.271-.306-2.414-1.076-6.92-.818-10.939-.484-5.371.446-10.24,1.045-15.36,1.569-10.876,1.115-21.793,2.22-32.652,3.338a37.475,37.475,0,0,1-6.17.38c-10.218-.558-16.026.442-20.765,1.568-3.792.9-8.946,1.256-14.595,1.761-11.527,1.031-25.591,1.24-35.319,2.825a61.541,61.541,0,0,1-8.346.523,116.449,116.449,0,0,0-16.528,1.025c-3.358.535-7.222.5-19.882.37.76-.844,6.033-.813,8.858-1.216.761-.108,1.626-.284,1.612-.427-.028-.311-1.9-.389-3.308-.359-2.613.054-5.165.186-7.73.293a258.725,258.725,0,0,1-26.564.16,242.261,242.261,0,0,0-26.8.385c-6.95.421-13.618.56-21.066.427-11.3-.2-22.67-.365-34.1-.323-3.157.012-6.636-.038-8.158.428-1.867.571,2.428.79,3.913,1.176a4.471,4.471,0,0,1,.953.469c-11.351.332-22.5.21-33.626-.061a35.421,35.421,0,0,1-5-.376c-4.7-1.1-11.865-1.242-19.1-1.307-9.835-.089-19.05-.847-29.1-.654Zm-159.1-7.254c-5.025-1.915-15.452-2.061-23.578-2.732a15.485,15.485,0,0,0-4.87.246c-.973.461,1.653.6,3.729.737,2.866.189,7.1-.175,8.562.593,2.349,1.236,8.781,1.056,16.157,1.156m-32.97-3.1c-3.8-.47-6.487-.925-9.78-1.176-3.489-.266-7.183-.008-8.3.575-.956.5,2.264.721,4.848.834a72.15,72.15,0,0,0,13.228-.233M549.6,62.426c2.261-.007,4.229-.108,3.77-.486-.6-.5-3.452-.579-6.108-.6-1.962-.013-3.992.112-4.013.467-.045.758,4.061.492,6.351.616m151.45-2.8a13.061,13.061,0,0,0,3.008.142c1.143-.027,2.289-.13,1.9-.34a8.584,8.584,0,0,0-2.783-.127,4.968,4.968,0,0,0-2.127.325" transform="translate(0 4.877)" fill="#e2f1f5"/>
        <path id="Path_22271" data-name="Path 22271" d="M0,6.353c3.559-.9,7.992-1.473,11.863-2.113a17.7,17.7,0,0,1,2.858-.259c12.263.342,19.193-1.193,28.086-2.02C47.723,1.5,52.383.976,57.079.461a38.973,38.973,0,0,1,11.1-.094c3.6.629,0,1.146-1.787,1.625-5.03,1.353-12.3,2.192-22.112,2.6-9.118.38-17.916.977-26.669,1.552C12.077,6.508,6.694,6.487,0,6.353" transform="translate(754.227 0.001)" fill="#e2f1f5"/>
        <path id="Path_22272" data-name="Path 22272" d="M.533,0C12.491,1.092,26.3,1.574,36.32,3.221a74.623,74.623,0,0,0,12.266.855c8.258-.112,14.016.811,21.258,1.078,3.327.122,5.453.487,4.806,1.054-.63.553-4.064.472-6.487.549-5.643.179-11.546.373-13.715-.865a9.06,9.06,0,0,0-3.265-.425A155.253,155.253,0,0,1,31.931,3.686C23.262,2.521,12.824,1.833,3.281.906,1.368.719-1.1.627.533,0" transform="translate(156.755 45.917)" fill="#e2f1f5"/>
        <path id="Path_22273" data-name="Path 22273" d="M0,2.071A137.2,137.2,0,0,1,17.083.081,13.988,13.988,0,0,1,21.756.29c.671.246.2.5-.974.65A146.353,146.353,0,0,1,0,2.071" transform="translate(680.607 10.963)" fill="#e2f1f5"/>
        <path id="Path_22274" data-name="Path 22274" d="M35.991.68A168.353,168.353,0,0,1,17.526.8C11.652.585,6.015.213,0,.036,12.257-.15,23.991.428,35.991.68" transform="translate(404.52 20.39)" fill="#e2f1f5"/>
        <path id="Path_22275" data-name="Path 22275" d="M29.461.958,0,.447.382.065c10.112-.112,20.21-.211,29.093.9.005,0-.014,0-.014,0" transform="translate(447.045 64.758)" fill="#e2f1f5"/>
        <path id="Path_22276" data-name="Path 22276" d="M0,.83C8.581-.276,8.581-.276,15.518.825,10.2,1.3,5.044.562,0,.83" transform="translate(705.975 9.159)" fill="#e2f1f5"/>
        <path id="Path_22277" data-name="Path 22277" d="M2.125.753C.947.721-.09.635.006.427.129.162,1.35.014,2.911,0,4.58-.013,5.784.147,5.52.419S3.66.744,2.125.753" transform="translate(829.771 2.545)" fill="#e2f1f5"/>
        <path id="Path_22278" data-name="Path 22278" d="M3.814.341A20.868,20.868,0,0,1,1.517.6C-.01.642-.409.45.433.278A19.16,19.16,0,0,1,3.145,0c.75-.027,1.111.123.669.338" transform="translate(429.541 65.026)" fill="#e2f1f5"/>
        <path id="Path_22279" data-name="Path 22279" d="M0,.29A13.315,13.315,0,0,1,3.6,0a14.572,14.572,0,0,1,1.5.155C3.836.26,2.615.38,1.3.463.467.516-.032.432,0,.29" transform="translate(336.139 60.008)" fill="#e2f1f5"/>
        <path id="Path_22280" data-name="Path 22280" d="M1.2.343,0,.11C.547.07,1.151-.014,1.626,0A6.578,6.578,0,0,1,2.781.208L1.2.343" transform="translate(399.503 62.63)" fill="#e2f1f5"/>
      </g>
    </g>
  </g>
</svg>

