<svg xmlns="http://www.w3.org/2000/svg" xmlns:xlink="http://www.w3.org/1999/xlink" width="329.952" height="93.985" viewBox="0 0 329.952 93.985">
  <defs>
    <clipPath id="clip-path">
      <rect id="Rectangle_27" data-name="Rectangle 27" width="292.099" height="21.494" fill="#e2f1f5"/>
    </clipPath>
  </defs>
  <g id="Group_146" data-name="Group 146" transform="translate(-44.296 -40.097)">
    <g id="Group_147" data-name="Group 147" transform="translate(336.543 61.382) rotate(172)">
      <g id="Group_74" data-name="Group 74" transform="translate(0 0)" clip-path="url(#clip-path)">
        <path id="Path_22270" data-name="Path 22270" d="M149.931,19.144c-.227-.124-.98-.255-.334-.375a8.663,8.663,0,0,1,2.249.036,34.967,34.967,0,0,0,7.332.073,18.7,18.7,0,0,1,2.449-.021c2.844.09,5.677.075,8.556.015,3.3-.068,6.675.023,9.989-.07a15.588,15.588,0,0,0,2.5-.137,8.273,8.273,0,0,0-2.195-.178c-2.028.014-4.052.042-6.08.054-8.258.049-16.511-.084-24.608-.265-8.007-.179-16.151-.274-24.02-.606-7.02-.3-14.172-.509-21.112-.857a23.313,23.313,0,0,0-2.759-.036c-.517.141.981.226.327.366-2.9.009-5.451-.188-8.163-.319-4.446-.214-8.062-.73-12.93-.8a30.582,30.582,0,0,1-5.444-.74,25.408,25.408,0,0,1,3.483.138,16.842,16.842,0,0,0,3.29.043c.937-.231-1.026-.335-1.7-.5a18.281,18.281,0,0,0-2.886-.2,28.615,28.615,0,0,1-4.728-.464c-2.34-.461-5.72-.73-8.789-1.05-4.1-.427-8.181-.859-12.265-1.289-3.653-.384-7.386-.758-11.114-1.129-2.317-.231-4.516-.5-6.439-.813-.248-.041-.682-.092-.651-.131.361-.46-1.932-.522-3.736-.687a14.519,14.519,0,0,1-2.629-.454,14.378,14.378,0,0,0-2.4-.485c-.668-.085-1.195-.209-1.175-.343.054-.376-.759-.663-2.86-.853-.409-.037-.549-.127-.267-.2a4.538,4.538,0,0,1,1.263-.028c1.5.1,2.684.32,4.934.311a13.686,13.686,0,0,0-3.058-.7c-5.191-.813-10.516-1.6-16.205-2.327-2.147-.273-4.226-.561-6.3-.847C.76,3.184-.032,3.089,0,2.9a26.721,26.721,0,0,1,5.364.375c1.869.305,4.152.514,6.256.763a17.038,17.038,0,0,0,2.914.187,28.824,28.824,0,0,1,4.915.233c3.445.378,7.262.66,10.686,1.049,1.529.173,3.319.308,5.274.338a10.017,10.017,0,0,1,2.381.219,16.962,16.962,0,0,0,3.534.294c.323-.189-.455-.23-1.044-.276-1.443-.111-2.5-.294-3.565-.474A13.462,13.462,0,0,0,33.181,5.2c-.5,0-1.078-.108-.915-.211A4.876,4.876,0,0,1,33.778,4.9c.833.014,1.659.038,2.493.05,1.118.016,2.58.234,3.093-.127a32.117,32.117,0,0,1,4.339.168c1.463.217,3.417.267,5.17.382a26.924,26.924,0,0,0,3.795-.033c-.054-.193-.408-.364-1.3-.465-2.451-.278-3.981-.714-6.611-.958a3.361,3.361,0,0,1-1.3-.259c-.071-.071-.084-.161.134-.218a4.654,4.654,0,0,1,1.531.006c3.744.456,8.363.65,12.292,1.049a34.555,34.555,0,0,0,4.466.178c-.851-.469-4.254-.478-5.34-.9a21.9,21.9,0,0,1,5.133-.07,32.765,32.765,0,0,0,5.051.172,32.787,32.787,0,0,1,3.337.17c2.747.2,5.5.377,8.612.337a11.069,11.069,0,0,1,1.374.035c2.191.479,6.249.336,8.83.685A3.252,3.252,0,0,0,90.8,5a9.635,9.635,0,0,1,2.228.022c6.12.332,12.461.533,18.74.758,7.893.283,15.9.492,23.893.694,2.681.068,5.483.006,8.225.022,4.543.026,9.093.047,13.618.111,3.254.046,6.41-.105,9.639-.064a11.681,11.681,0,0,0,2.281-.137c1.962-.541,5.485-.45,8.489-.55,2.324-.077,4.608-.166,6.9-.261,4.177-.174,7.87-.506,11.737-.776,4.038-.281,7.8-.661,11.75-.978,3.1-.248,6.293-.464,9.448-.694.216-.016.461-.039.676-.035,4.387.081,8.083-.251,11.889-.509,1.966-.133,3.854-.3,5.511-.516a11.542,11.542,0,0,1,3.188-.071,7.1,7.1,0,0,0,2.616,0L246,1.458c-1.665-.111-2.95.177-4.464-.016a46.524,46.524,0,0,1,6.649-.569c4.245-.1,8.3-.271,11.942-.645.5-.051,1.1-.08,1.574-.137a7.456,7.456,0,0,1,2.685.058,20.779,20.779,0,0,0,5.971.226c.977-.069,2.034-.112,3.07-.158a21.376,21.376,0,0,1,3.692.138c1.525.2,1.416.458-.412.5-2.788.07-2.815.369-3.183.7-.864.77,1.634,1.2,5.577,1.51.105.121-.592.155-.932.226-2.768.579-2.754.6-.021,1.2,1.952.433,3.533.9,5.033,1.378.394.125.411.252.421.388.036.512,1.018.742,4.244.807,1.946.039,2.175.208,2.075.417a4.054,4.054,0,0,1-.948,1.071c-.347.312-.394.58,1.306.832,1.9.283,2.317.673,1.223,1.056-1.109.389-.71.826-1.834,1.215-.363.126-.178.313.624.426,1.782.251.65.426-.518.612q-4.562.726-9.08,1.46a16.317,16.317,0,0,0-2.328.506,37.781,37.781,0,0,1-6.032.957,7.089,7.089,0,0,1-2.917-.1,8.488,8.488,0,0,0-3.442-.152c-1.69.14-3.222.329-4.833.494-3.422.351-6.857.7-10.273,1.05a11.791,11.791,0,0,1-1.941.119,21.078,21.078,0,0,0-6.533.493,36.533,36.533,0,0,1-4.592.554c-3.627.324-8.052.39-11.113.889a19.363,19.363,0,0,1-2.626.164,36.64,36.64,0,0,0-5.2.322,43.61,43.61,0,0,1-6.256.116c.239-.266,1.9-.256,2.787-.383.239-.034.512-.089.507-.134-.009-.1-.6-.122-1.041-.113-.822.017-1.625.058-2.432.092a81.4,81.4,0,0,1-8.358.05,76.223,76.223,0,0,0-8.432.121c-2.187.133-4.285.176-6.628.134-3.554-.063-7.133-.115-10.73-.1a12.742,12.742,0,0,0-2.567.135c-.587.18.764.249,1.231.37a1.407,1.407,0,0,1,.3.147c-3.572.1-7.079.066-10.58-.019a11.145,11.145,0,0,1-1.574-.118,31.655,31.655,0,0,0-6.01-.411c-3.094-.028-5.994-.266-9.157-.206ZM99.872,16.862c-1.581-.6-4.862-.649-7.418-.86a4.872,4.872,0,0,0-1.532.078c-.306.145.52.189,1.173.232a11.333,11.333,0,0,1,2.694.186c.739.389,2.763.332,5.083.364M89.5,15.886c-1.2-.148-2.041-.291-3.077-.37a6.921,6.921,0,0,0-2.611.181c-.3.157.712.227,1.525.262a22.7,22.7,0,0,0,4.162-.073m83.426,3.755c.712,0,1.331-.034,1.186-.153a5.528,5.528,0,0,0-1.922-.188c-.617,0-1.256.035-1.263.147-.014.239,1.278.155,2,.194m47.651-.881a4.11,4.11,0,0,0,.946.045c.36-.009.72-.041.6-.107a2.7,2.7,0,0,0-.876-.04,1.563,1.563,0,0,0-.669.1" transform="translate(0 1.534)" fill="#e2f1f5"/>
        <path id="Path_22271" data-name="Path 22271" d="M0,2c1.12-.285,2.515-.463,3.733-.665a5.568,5.568,0,0,1,.9-.081A58.71,58.71,0,0,0,13.469.617c1.547-.144,3.013-.31,4.49-.472a12.262,12.262,0,0,1,3.494-.03c1.133.2,0,.36-.562.511a33.974,33.974,0,0,1-6.957.818c-2.869.119-5.637.308-8.391.488C3.8,2.048,2.106,2.041,0,2" transform="translate(237.306 0)" fill="#e2f1f5"/>
        <path id="Path_22272" data-name="Path 22272" d="M.168,0C3.93.344,8.275.5,11.428,1.013a23.48,23.48,0,0,0,3.859.269c2.6-.035,4.41.255,6.689.339,1.047.039,1.716.153,1.512.332a6.864,6.864,0,0,1-2.041.173c-1.776.056-3.633.117-4.315-.272A2.851,2.851,0,0,0,16.1,1.72a48.848,48.848,0,0,1-6.058-.561C7.319.793,4.035.577,1.032.285.43.226-.346.2.168,0" transform="translate(49.321 14.447)" fill="#e2f1f5"/>
        <path id="Path_22273" data-name="Path 22273" d="M0,.652A43.168,43.168,0,0,1,5.375.026a4.4,4.4,0,0,1,1.47.066c.211.078.062.158-.307.2A46.046,46.046,0,0,1,0,.652" transform="translate(214.142 3.449)" fill="#e2f1f5"/>
        <path id="Path_22274" data-name="Path 22274" d="M11.324.214a52.969,52.969,0,0,1-5.81.037C3.666.184,1.893.067,0,.011c3.856-.059,7.548.123,11.324.2" transform="translate(127.276 6.415)" fill="#e2f1f5"/>
        <path id="Path_22275" data-name="Path 22275" d="M9.27.3,0,.141.12.021A70.652,70.652,0,0,1,9.274.3l0,0" transform="translate(140.656 20.375)" fill="#e2f1f5"/>
        <path id="Path_22276" data-name="Path 22276" d="M0,.261a11.5,11.5,0,0,1,4.882,0C3.208.409,1.587.177,0,.261" transform="translate(222.124 2.882)" fill="#e2f1f5"/>
        <path id="Path_22277" data-name="Path 22277" d="M.669.237C.3.227-.028.2,0,.134.041.051.425,0,.916,0c.525,0,.9.046.821.131A2.92,2.92,0,0,1,.669.237" transform="translate(261.075 0.801)" fill="#e2f1f5"/>
        <path id="Path_22278" data-name="Path 22278" d="M1.2.107A6.566,6.566,0,0,1,.477.189C0,.2-.129.142.136.087A6.03,6.03,0,0,1,.99,0c.236-.009.349.039.21.106" transform="translate(135.148 20.46)" fill="#e2f1f5"/>
        <path id="Path_22279" data-name="Path 22279" d="M0,.091A4.189,4.189,0,0,1,1.132,0,4.582,4.582,0,0,1,1.6.049c-.4.033-.78.07-1.193.1C.147.162-.01.136,0,.091" transform="translate(105.761 18.881)" fill="#e2f1f5"/>
        <path id="Path_22280" data-name="Path 22280" d="M.378.108,0,.035C.172.022.362,0,.511,0A2.069,2.069,0,0,1,.875.065l-.5.043" transform="translate(125.698 19.706)" fill="#e2f1f5"/>
      </g>
    </g>
    <g id="Group_149" data-name="Group 149" transform="translate(374.248 93.43) rotate(172)">
      <g id="Group_74-2" data-name="Group 74" transform="translate(0 0)" clip-path="url(#clip-path)">
        <path id="Path_22270-2" data-name="Path 22270" d="M149.931,19.144c-.227-.124-.98-.255-.334-.375a8.663,8.663,0,0,1,2.249.036,34.967,34.967,0,0,0,7.332.073,18.7,18.7,0,0,1,2.449-.021c2.844.09,5.677.075,8.556.015,3.3-.068,6.675.023,9.989-.07a15.588,15.588,0,0,0,2.5-.137,8.273,8.273,0,0,0-2.195-.178c-2.028.014-4.052.042-6.08.054-8.258.049-16.511-.084-24.608-.265-8.007-.179-16.151-.274-24.02-.606-7.02-.3-14.172-.509-21.112-.857a23.313,23.313,0,0,0-2.759-.036c-.517.141.981.226.327.366-2.9.009-5.451-.188-8.163-.319-4.446-.214-8.062-.73-12.93-.8a30.582,30.582,0,0,1-5.444-.74,25.408,25.408,0,0,1,3.483.138,16.842,16.842,0,0,0,3.29.043c.937-.231-1.026-.335-1.7-.5a18.281,18.281,0,0,0-2.886-.2,28.615,28.615,0,0,1-4.728-.464c-2.34-.461-5.72-.73-8.789-1.05-4.1-.427-8.181-.859-12.265-1.289-3.653-.384-7.386-.758-11.114-1.129-2.317-.231-4.516-.5-6.439-.813-.248-.041-.682-.092-.651-.131.361-.46-1.932-.522-3.736-.687a14.519,14.519,0,0,1-2.629-.454,14.378,14.378,0,0,0-2.4-.485c-.668-.085-1.195-.209-1.175-.343.054-.376-.759-.663-2.86-.853-.409-.037-.549-.127-.267-.2a4.538,4.538,0,0,1,1.263-.028c1.5.1,2.684.32,4.934.311a13.686,13.686,0,0,0-3.058-.7c-5.191-.813-10.516-1.6-16.205-2.327-2.147-.273-4.226-.561-6.3-.847C.76,3.184-.032,3.089,0,2.9a26.721,26.721,0,0,1,5.364.375c1.869.305,4.152.514,6.256.763a17.038,17.038,0,0,0,2.914.187,28.824,28.824,0,0,1,4.915.233c3.445.378,7.262.66,10.686,1.049,1.529.173,3.319.308,5.274.338a10.017,10.017,0,0,1,2.381.219,16.962,16.962,0,0,0,3.534.294c.323-.189-.455-.23-1.044-.276-1.443-.111-2.5-.294-3.565-.474A13.462,13.462,0,0,0,33.181,5.2c-.5,0-1.078-.108-.915-.211A4.876,4.876,0,0,1,33.778,4.9c.833.014,1.659.038,2.493.05,1.118.016,2.58.234,3.093-.127a32.117,32.117,0,0,1,4.339.168c1.463.217,3.417.267,5.17.382a26.924,26.924,0,0,0,3.795-.033c-.054-.193-.408-.364-1.3-.465-2.451-.278-3.981-.714-6.611-.958a3.361,3.361,0,0,1-1.3-.259c-.071-.071-.084-.161.134-.218a4.654,4.654,0,0,1,1.531.006c3.744.456,8.363.65,12.292,1.049a34.555,34.555,0,0,0,4.466.178c-.851-.469-4.254-.478-5.34-.9a21.9,21.9,0,0,1,5.133-.07,32.765,32.765,0,0,0,5.051.172,32.787,32.787,0,0,1,3.337.17c2.747.2,5.5.377,8.612.337a11.069,11.069,0,0,1,1.374.035c2.191.479,6.249.336,8.83.685A3.252,3.252,0,0,0,90.8,5a9.635,9.635,0,0,1,2.228.022c6.12.332,12.461.533,18.74.758,7.893.283,15.9.492,23.893.694,2.681.068,5.483.006,8.225.022,4.543.026,9.093.047,13.618.111,3.254.046,6.41-.105,9.639-.064a11.681,11.681,0,0,0,2.281-.137c1.962-.541,5.485-.45,8.489-.55,2.324-.077,4.608-.166,6.9-.261,4.177-.174,7.87-.506,11.737-.776,4.038-.281,7.8-.661,11.75-.978,3.1-.248,6.293-.464,9.448-.694.216-.016.461-.039.676-.035,4.387.081,8.083-.251,11.889-.509,1.966-.133,3.854-.3,5.511-.516a11.542,11.542,0,0,1,3.188-.071,7.1,7.1,0,0,0,2.616,0L246,1.458c-1.665-.111-2.95.177-4.464-.016a46.524,46.524,0,0,1,6.649-.569c4.245-.1,8.3-.271,11.942-.645.5-.051,1.1-.08,1.574-.137a7.456,7.456,0,0,1,2.685.058,20.779,20.779,0,0,0,5.971.226c.977-.069,2.034-.112,3.07-.158a21.376,21.376,0,0,1,3.692.138c1.525.2,1.416.458-.412.5-2.788.07-2.815.369-3.183.7-.864.77,1.634,1.2,5.577,1.51.105.121-.592.155-.932.226-2.768.579-2.754.6-.021,1.2,1.952.433,3.533.9,5.033,1.378.394.125.411.252.421.388.036.512,1.018.742,4.244.807,1.946.039,2.175.208,2.075.417a4.054,4.054,0,0,1-.948,1.071c-.347.312-.394.58,1.306.832,1.9.283,2.317.673,1.223,1.056-1.109.389-.71.826-1.834,1.215-.363.126-.178.313.624.426,1.782.251.65.426-.518.612q-4.562.726-9.08,1.46a16.317,16.317,0,0,0-2.328.506,37.781,37.781,0,0,1-6.032.957,7.089,7.089,0,0,1-2.917-.1,8.488,8.488,0,0,0-3.442-.152c-1.69.14-3.222.329-4.833.494-3.422.351-6.857.7-10.273,1.05a11.791,11.791,0,0,1-1.941.119,21.078,21.078,0,0,0-6.533.493,36.533,36.533,0,0,1-4.592.554c-3.627.324-8.052.39-11.113.889a19.363,19.363,0,0,1-2.626.164,36.64,36.64,0,0,0-5.2.322,43.61,43.61,0,0,1-6.256.116c.239-.266,1.9-.256,2.787-.383.239-.034.512-.089.507-.134-.009-.1-.6-.122-1.041-.113-.822.017-1.625.058-2.432.092a81.4,81.4,0,0,1-8.358.05,76.223,76.223,0,0,0-8.432.121c-2.187.133-4.285.176-6.628.134-3.554-.063-7.133-.115-10.73-.1a12.742,12.742,0,0,0-2.567.135c-.587.18.764.249,1.231.37a1.407,1.407,0,0,1,.3.147c-3.572.1-7.079.066-10.58-.019a11.145,11.145,0,0,1-1.574-.118,31.655,31.655,0,0,0-6.01-.411c-3.094-.028-5.994-.266-9.157-.206ZM99.872,16.862c-1.581-.6-4.862-.649-7.418-.86a4.872,4.872,0,0,0-1.532.078c-.306.145.52.189,1.173.232a11.333,11.333,0,0,1,2.694.186c.739.389,2.763.332,5.083.364M89.5,15.886c-1.2-.148-2.041-.291-3.077-.37a6.921,6.921,0,0,0-2.611.181c-.3.157.712.227,1.525.262a22.7,22.7,0,0,0,4.162-.073m83.426,3.755c.712,0,1.331-.034,1.186-.153a5.528,5.528,0,0,0-1.922-.188c-.617,0-1.256.035-1.263.147-.014.239,1.278.155,2,.194m47.651-.881a4.11,4.11,0,0,0,.946.045c.36-.009.72-.041.6-.107a2.7,2.7,0,0,0-.876-.04,1.563,1.563,0,0,0-.669.1" transform="translate(0 1.534)" fill="#e2f1f5"/>
        <path id="Path_22271-2" data-name="Path 22271" d="M0,2c1.12-.285,2.515-.463,3.733-.665a5.568,5.568,0,0,1,.9-.081A58.71,58.71,0,0,0,13.469.617c1.547-.144,3.013-.31,4.49-.472a12.262,12.262,0,0,1,3.494-.03c1.133.2,0,.36-.562.511a33.974,33.974,0,0,1-6.957.818c-2.869.119-5.637.308-8.391.488C3.8,2.048,2.106,2.041,0,2" transform="translate(237.306 0)" fill="#e2f1f5"/>
        <path id="Path_22272-2" data-name="Path 22272" d="M.168,0C3.93.344,8.275.5,11.428,1.013a23.48,23.48,0,0,0,3.859.269c2.6-.035,4.41.255,6.689.339,1.047.039,1.716.153,1.512.332a6.864,6.864,0,0,1-2.041.173c-1.776.056-3.633.117-4.315-.272A2.851,2.851,0,0,0,16.1,1.72a48.848,48.848,0,0,1-6.058-.561C7.319.793,4.035.577,1.032.285.43.226-.346.2.168,0" transform="translate(49.321 14.447)" fill="#e2f1f5"/>
        <path id="Path_22273-2" data-name="Path 22273" d="M0,.652A43.168,43.168,0,0,1,5.375.026a4.4,4.4,0,0,1,1.47.066c.211.078.062.158-.307.2A46.046,46.046,0,0,1,0,.652" transform="translate(214.142 3.449)" fill="#e2f1f5"/>
        <path id="Path_22274-2" data-name="Path 22274" d="M11.324.214a52.969,52.969,0,0,1-5.81.037C3.666.184,1.893.067,0,.011c3.856-.059,7.548.123,11.324.2" transform="translate(127.276 6.415)" fill="#e2f1f5"/>
        <path id="Path_22275-2" data-name="Path 22275" d="M9.27.3,0,.141.12.021A70.652,70.652,0,0,1,9.274.3l0,0" transform="translate(140.656 20.375)" fill="#e2f1f5"/>
        <path id="Path_22276-2" data-name="Path 22276" d="M0,.261a11.5,11.5,0,0,1,4.882,0C3.208.409,1.587.177,0,.261" transform="translate(222.124 2.882)" fill="#e2f1f5"/>
        <path id="Path_22277-2" data-name="Path 22277" d="M.669.237C.3.227-.028.2,0,.134.041.051.425,0,.916,0c.525,0,.9.046.821.131A2.92,2.92,0,0,1,.669.237" transform="translate(261.075 0.801)" fill="#e2f1f5"/>
        <path id="Path_22278-2" data-name="Path 22278" d="M1.2.107A6.566,6.566,0,0,1,.477.189C0,.2-.129.142.136.087A6.03,6.03,0,0,1,.99,0c.236-.009.349.039.21.106" transform="translate(135.148 20.46)" fill="#e2f1f5"/>
        <path id="Path_22279-2" data-name="Path 22279" d="M0,.091A4.189,4.189,0,0,1,1.132,0,4.582,4.582,0,0,1,1.6.049c-.4.033-.78.07-1.193.1C.147.162-.01.136,0,.091" transform="translate(105.761 18.881)" fill="#e2f1f5"/>
        <path id="Path_22280-2" data-name="Path 22280" d="M.378.108,0,.035C.172.022.362,0,.511,0A2.069,2.069,0,0,1,.875.065l-.5.043" transform="translate(125.698 19.706)" fill="#e2f1f5"/>
      </g>
    </g>
  </g>
</svg>
