<svg xmlns="http://www.w3.org/2000/svg" width="200" height="91.129" viewBox="0 0 200 91.129"><g transform="translate(-207.638 -210.4)"><path d="M534.374,310.393l-2.991,2.535a6.443,6.443,0,0,0-5.042-2.25,6.146,6.146,0,0,0-4.472,1.795,5.97,5.97,0,0,0-1.823,4.473,6.054,6.054,0,0,0,1.795,4.472,6.256,6.256,0,0,0,4.5,1.766,6.486,6.486,0,0,0,5.071-2.279l2.991,2.535a10.516,10.516,0,0,1-8.062,3.732,10.681,10.681,0,0,1-7.577-2.906,10.183,10.183,0,0,1,0-14.643,10.882,10.882,0,0,1,15.611.769Zm9.278-.712a10.477,10.477,0,0,1,7.52-2.991,10.363,10.363,0,0,1,7.493,2.991,9.693,9.693,0,0,1,3.105,7.292,9.833,9.833,0,0,1-3.077,7.321,11.027,11.027,0,0,1-15.04,0,10.216,10.216,0,0,1,0-14.614Zm3.105,11.794a6.017,6.017,0,0,0,4.415,1.795,5.87,5.87,0,0,0,4.387-1.823,6.4,6.4,0,0,0,.028-8.917,6.19,6.19,0,0,0-8.831,0,6.47,6.47,0,0,0,0,8.945Zm23.286,5.384V307h8.318a6.557,6.557,0,0,1,4.758,1.909,6.324,6.324,0,0,1-1.538,10.284l4.843,7.663h-4.957l-4.13-6.609H574.4v6.609Zm4.358-10.483h3.476a2.64,2.64,0,0,0,2.849-2.763,2.5,2.5,0,0,0-2.478-2.621H574.4Zm18.691,10.483L601.3,307h3.9l8.205,19.856h-4.673l-1.339-3.333H599.1l-1.339,3.333Zm7.264-6.837h5.783l-2.877-7.207Zm20.437,6.837V307h4.387V322.87h7.75v3.988Zm-94.721,9.519-1.665,1.411a3.585,3.585,0,0,0-2.806-1.252,3.421,3.421,0,0,0-2.489,1,3.323,3.323,0,0,0-1.014,2.489,3.368,3.368,0,0,0,1,2.488,3.482,3.482,0,0,0,2.5.983,3.608,3.608,0,0,0,2.82-1.268l1.665,1.411a5.852,5.852,0,0,1-4.485,2.077,5.945,5.945,0,0,1-4.217-1.617,5.667,5.667,0,0,1,0-8.148,6.053,6.053,0,0,1,8.687.428Zm9.417,9.163,4.566-11.049h2.172l4.566,11.049h-2.6l-.745-1.853h-4.613l-.745,1.853Zm4.042-3.8h3.218l-1.6-4.011Zm17.382,3.8V334.491h4.66a3.779,3.779,0,0,1,2.552,1.031,3.436,3.436,0,0,1,1.173,2.711,3.511,3.511,0,0,1-1.141,2.679,3.66,3.66,0,0,1-2.584,1.062h-2.219v3.567Zm2.441-5.786h2.079a1.545,1.545,0,0,0,.967-.349,1.415,1.415,0,0,0,.46-1.173,1.383,1.383,0,0,0-.46-1.158,1.568,1.568,0,0,0-.967-.364h-2.076Zm16.321,5.786V334.491h2.441V345.54Zm15.547,0v-8.83h-3v-2.219h8.386v2.219h-2.949v8.83Zm13.526,0,4.566-11.049h2.172l4.566,11.049h-2.6l-.745-1.853H608.1l-.745,1.853Zm4.042-3.8h3.218l-1.6-4.011Zm17.383,3.8V334.491h2.441v8.83h4.314v2.219Z" transform="translate(-225.292 -70.427)" fill="#555"/><path d="M290.218,282.54a45.564,45.564,0,1,1,0-53.152,1.536,1.536,0,0,1-.411,2.164l-6.589,4.4a1.531,1.531,0,0,1-2.085-.349,34.559,34.559,0,1,0,0,40.716,1.531,1.531,0,0,1,2.085-.349l6.589,4.4a1.536,1.536,0,0,1,.411,2.166Zm-12.239-40.293c-.891,1.219-12.3,17.487-12.445,17.692-1.268-.287-2.655-.528-4.172-.793-4.139-.746-8.083-1.4-11.222-1.9l24.572-19.676a28.12,28.12,0,0,0-3.686-3.539c-.312.259-6.536,5.243-13,10.421-.049-.554-.278-3.015-.711-6.06.292-.386,6.15-8.122,6.464-8.558a30.2,30.2,0,0,0-5.14-1.468s-.18.247-2.532,3.284c-.3-1.316-.634-2.578-1.009-3.694a25.27,25.27,0,0,0-5.13.2c.34,1.125,3.314,11.773,3.256,20.137l-9.889,7.912h-.009s1.438-6.816,2.283-12.005,2.382-15.723,2.382-15.723a27.988,27.988,0,0,0-5.289,1.633c0,1.209-1.751,11.214-2.939,18.718q-.2,1.231-.409,2.357c-.027-.034-.728-.925-1.893-2.349.034-.822.278-6.651.278-7.034a29.294,29.294,0,0,1,.283-3.25c.247-2.06.863-6.436.863-6.436a26.363,26.363,0,0,0-5.694,4.694c-.161,1.448-.349,3.025-.4,3.5-.041.407-.114,2.329-.132,2.839-.75-.863-1.535-1.754-2.351-2.662a29.014,29.014,0,0,0-2.492,4.7c3,3.14,9.454,11.468,10.078,12.263-.641,2.283-1.135,3.56-1.135,3.56l-2.2,1.736-7.645-15.017a31.117,31.117,0,0,0-1.182,8.776c1.834,3.568,4.624,9.053,4.808,9.411l-2.184,1.722a31.8,31.8,0,0,0,2.609,4.416l6.92-5.294c.064.01.131.023.2.034l-1.572,10.936a27.963,27.963,0,0,0,4.258,2.725l1.8-12.539c.321.1.642.2.962.308l.316.409,1.147,13.592a27.889,27.889,0,0,0,4.042.985l-.745-8.829c2.495,3.227,5.386,6.97,7.133,9.237a23.41,23.41,0,0,0,5.613-.953l-.109-.094s-1.47-1.907-1.907-2.471-5.126-6.733-6.267-8.238c.586.234,4.4,1.755,7.986,3.079,3.893,1.438,9.684,3.1,9.684,3.1a23.991,23.991,0,0,0,4.261-4.014c-2.307-.553-5.555-1.553-9.995-3.012s-7.64-2.809-10.751-4.091c-5.721-2.423-10.943-4.1-10.943-4.1l1.829-1.438s12.733,2.2,14.428,2.467,5.791.989,7.015,1.318,2.3,1.7,3.355,2.8a38.513,38.513,0,0,0,6.156,4.732,35.777,35.777,0,0,0,2.688-4.237s-.564-.344-2.126-1.407c-4.378-3.189-3.659-3.865-5.941-5.3,2.755-3.931,9.876-14.089,9.876-14.089A27.8,27.8,0,0,0,277.978,242.247Z" fill="#ff7a59"/></g></svg>